<svg xmlns="http://www.w3.org/2000/svg" viewBox="0 0 1458 834" preserveAspectRatio="xMidYMid" width="1458" height="834" xmlns:xlink="http://www.w3.org/1999/xlink" style="shape-rendering:auto;display:block;background-position-x:0%;background-position-y:0%;background-size:auto;background-origin:padding-box;background-clip:border-box;background:scroll rgb(255, 255, 255) none  repeat;width:1458px;height:834px;;animation:none"><g><linearGradient y2="0" y1="0" x2="1" x1="0" id="lg-84wcnc1n1mk"><stop offset="0" stop-color="#ff00ff"></stop>

  
<stop offset="1" stop-color="#00ffff"></stop></linearGradient>
<path opacity="0.4" fill="url(#lg-84wcnc1n1mk)" d="M 0 0 L 0 645.57 Q 145.8 769.29 291.6 742.46 T 583.2 713.05 T 874.8 673.2 T 1166.4 675.84 T 1458 697.02 L 1458 0 Z" style="fill:url('#lg-84wcnc1n1mk');opacity:0.4;;animation:none"></path>
<path opacity="0.4" fill="url(#lg-84wcnc1n1mk)" d="M 0 0 L 0 759.173 Q 145.8 738.026 291.6 718.137 T 583.2 665.88 T 874.8 698.596 T 1166.4 716.759 T 1458 738.583 L 1458 0 Z" style="fill:url('#lg-84wcnc1n1mk');opacity:0.4;;animation:none"></path>
<path opacity="0.4" fill="url(#lg-84wcnc1n1mk)" d="M 0 0 L 0 770.594 Q 145.8 782.105 291.6 744.016 T 583.2 764.515 T 874.8 747.037 T 1166.4 772.59 T 1458 669.92 L 1458 0 Z" style="fill:url('#lg-84wcnc1n1mk');opacity:0.4;;animation:none"></path>
<path opacity="0.4" fill="url(#lg-84wcnc1n1mk)" d="M 0 0 L 0 664.518 Q 145.8 809.901 291.6 778.818 T 583.2 748.226 T 874.8 711.307 T 1166.4 716.235 T 1458 747.806 L 1458 0 Z" style="fill:url('#lg-84wcnc1n1mk');opacity:0.4;;animation:none"></path>
<path opacity="0.4" fill="url(#lg-84wcnc1n1mk)" d="M 0 0 L 0 730.526 Q 145.8 788.698 291.6 757.906 T 583.2 737.763 T 874.8 748.308 T 1166.4 736.571 T 1458 704.41 L 1458 0 Z" style="fill:url('#lg-84wcnc1n1mk');opacity:0.4;;animation:none"></path>
<g></g></g><!-- [ldio] generated by https://loading.io --></svg>